<svg xmlns="http://www.w3.org/2000/svg" viewBox="0 0 19 22" width="19" height="22">
	<style>
		tspan { white-space:pre }
		.shp0 { fill: #278dcd } 
	</style>
	<path id="E" class="shp0" d="M8.09,13.63h8.23c0.22,0 0.4,-0.08 0.56,-0.23c0.16,-0.15 0.24,-0.33 0.24,-0.54v-3.72c0,-0.21 -0.08,-0.39 -0.24,-0.54c-0.16,-0.15 -0.35,-0.23 -0.56,-0.23h-8.23v-1.8h8.88c0.22,0 0.4,-0.08 0.56,-0.23c0.16,-0.15 0.24,-0.33 0.24,-0.54v-4.03c0,-0.21 -0.08,-0.39 -0.24,-0.54c-0.16,-0.15 -0.35,-0.23 -0.56,-0.23h-15.19c-0.22,0 -0.4,0.08 -0.56,0.23c-0.16,0.15 -0.24,0.33 -0.24,0.54v18.47c0,0.21 0.08,0.39 0.24,0.54c0.16,0.15 0.35,0.23 0.56,0.23h15.42c0.22,0 0.4,-0.08 0.56,-0.23c0.16,-0.15 0.24,-0.33 0.24,-0.54v-4.03c0,-0.21 -0.08,-0.39 -0.24,-0.54c-0.16,-0.15 -0.35,-0.23 -0.56,-0.23h-9.12z" />
</svg>