<svg xmlns="http://www.w3.org/2000/svg" viewBox="0 0 16 16" width="16" height="16">
	<style>
		tspan { white-space:pre }
		.shp0 { fill: #44b0f4 } 
	</style>
	<path id="search.png" class="shp0" d="M15.87 15.23L12.22 11.59C13.2 10.47 13.79 9 13.79 7.4C13.79 3.87 10.92 1 7.4 1C3.87 1 1 3.87 1 7.4C1 10.92 3.87 13.79 7.4 13.79C9 13.79 10.47 13.2 11.59 12.22L15.24 15.87C15.32 15.95 15.44 16 15.55 16C15.67 16 15.78 15.96 15.87 15.87C16.04 15.69 16.04 15.41 15.87 15.23ZM1.89 7.4C1.89 4.36 4.36 1.9 7.39 1.9C10.43 1.9 12.89 4.37 12.89 7.4C12.89 10.43 10.43 12.9 7.39 12.9C4.36 12.9 1.89 10.43 1.89 7.4Z" />
</svg>